<svg width="48" height="46" viewBox="0 0 48 46" fill="none" xmlns="http://www.w3.org/2000/svg">
<path d="M24.6828 41.126C24.6828 39.9406 23.7187 38.9765 22.5332 38.9765C21.3477 38.9765 20.3837 39.9406 20.3837 41.126C20.3837 42.3115 21.3477 43.2756 22.5332 43.2756C23.7187 43.2756 24.6828 42.3115 24.6828 41.126ZM38.6551 41.126C38.6551 39.9406 37.691 38.9765 36.5055 38.9765C35.32 38.9765 34.356 39.9406 34.356 41.126C34.356 42.3115 35.32 43.2756 36.5055 43.2756C37.691 43.2756 38.6551 42.3115 38.6551 41.126ZM40.2071 31.8081C40.0561 32.2391 39.6493 32.5277 39.1925 32.5277H17.6967C16.5112 32.5277 15.5471 33.4918 15.5471 34.6773C15.5471 35.8628 16.5112 36.8269 17.6967 36.8269H36.5055C38.876 36.8269 40.8047 38.7556 40.8047 41.126C40.8047 43.4965 38.876 45.4252 36.5055 45.4252C34.1351 45.4252 32.2064 43.4965 32.2064 41.126C32.2064 40.3425 32.4203 39.6095 32.7878 38.9765H26.2509C26.6185 39.6095 26.8324 40.3425 26.8324 41.126C26.8324 43.4965 24.9037 45.4252 22.5332 45.4252C20.1628 45.4252 18.2341 43.4965 18.2341 41.126C18.2341 40.3425 18.448 39.6095 18.8155 38.9765H17.6967C15.3262 38.9765 13.3975 37.0477 13.3975 34.6773C13.3975 32.4562 15.0908 30.6232 17.2544 30.4007L7.52108 3.14718C7.36846 2.72049 6.96165 2.43352 6.50863 2.43352H1.57479C0.981507 2.43352 0.5 1.95201 0.5 1.35873C0.5 0.765443 0.981507 0.283936 1.57479 0.283936H6.50863C7.8677 0.283936 9.08813 1.14377 9.54492 2.42385L11.852 8.88228H46.7161C47.0643 8.88228 47.391 9.05102 47.5926 9.3353C47.7941 9.61958 47.8457 9.9834 47.7307 10.3123L40.2071 31.8081Z" fill="#FF4D00"/>
</svg>
