<svg width="38" height="23" viewBox="0 0 38 23" fill="none" xmlns="http://www.w3.org/2000/svg">
<path d="M13.75 11.6279L0.05 22.0623C0.03125 22.0623 0.01875 22.0936 0 22.1092V1.79669L13.75 11.6279ZM14.8125 12.3904L18.3937 14.9529C18.4996 15.0282 18.6263 15.0686 18.7562 15.0686C18.8872 15.0693 19.0151 15.0288 19.1219 14.9529L22.7 12.3904L36.1969 22.6686H1.30313L14.8125 12.3904ZM37.5 22.1092C37.4849 22.092 37.4681 22.0763 37.45 22.0623L23.75 11.6279L37.5 1.78419V22.1092ZM37.025 0.546692H37.075L18.75 13.6748L0.425 0.549818H37.025V0.546692Z" fill="#3C3C3C"/>
</svg>
