<svg width="38" height="23" viewBox="0 0 38 23" fill="none" xmlns="http://www.w3.org/2000/svg">
<path d="M13.8945 11.3954L0.194531 21.8065C0.175781 21.8065 0.163281 21.8377 0.144531 21.8533V1.58597L13.8945 11.3954ZM14.957 12.1562L18.5383 14.713C18.6442 14.7881 18.7709 14.8284 18.9008 14.8283C19.0318 14.8291 19.1597 14.7887 19.2664 14.713L22.8445 12.1562L36.3414 22.4114H1.44766L14.957 12.1562ZM37.6445 21.8533C37.6294 21.8361 37.6127 21.8205 37.5945 21.8065L23.8945 11.3954L37.6445 1.57349V21.8533ZM37.1695 0.338745H37.2195L18.8945 13.4377L0.569531 0.341864H37.1695V0.338745Z" fill="white"/>
</svg>
