<svg width="450" height="136" viewBox="0 0 450 136" fill="none" xmlns="http://www.w3.org/2000/svg">
<path d="M17.5494 11.4285C9.61623 16.4637 -9.08788 47.9167 5.49397 58.1428C17.7263 66.7199 24.6191 54.0983 24.6191 54.0983C24.6191 54.0983 28.2425 45.9953 24.1591 34.131C20.0758 22.2667 30.2842 21.7076 30.2842 12.4582C30.2842 3.20873 17.5494 11.4285 17.5494 11.4285Z" fill="#FFAA00"/>
<path d="M62.4839 38.9999C64.7449 38.9999 66.5778 37.0276 66.5778 34.5946C66.5778 32.1616 64.7449 30.1892 62.4839 30.1892C60.2228 30.1892 58.3899 32.1616 58.3899 34.5946C58.3899 37.0276 60.2228 38.9999 62.4839 38.9999Z" fill="#FFAA00"/>
<path d="M38.3339 43.4088C40.595 43.4088 42.4279 41.4365 42.4279 39.0035C42.4279 36.5705 40.595 34.5981 38.3339 34.5981C36.0729 34.5981 34.24 36.5705 34.24 39.0035C34.24 41.4365 36.0729 43.4088 38.3339 43.4088Z" fill="#FFAA00"/>
<path d="M29.3147 65.3719C34.4631 81.5885 77.1011 85.6329 81.4392 62.9198C85.7773 40.2066 54.4729 16.2196 56.235 7.95389C57.8308 0.470123 60.5731 0.908886 64.0939 0.908886C67.6146 0.908886 81.6055 7.14359 87.8933 5.51591C94.1811 3.88824 107.8 6.66944 107.8 16.8318C107.8 21.0319 103.342 31.7533 87.8933 26.6049C72.4445 21.4565 62.4874 9.85402 62.4874 9.85402C62.4874 9.85402 80.6289 35.6031 109.357 42.1068C109.357 42.1068 164.263 63.2311 169.143 91.1493C169.143 91.1493 202.591 67.8559 185.246 45.3621C185.246 45.3621 223.461 87.6286 167.359 110.395C167.359 110.395 162.639 133.975 146.649 133.975C130.659 133.975 101.668 135.33 101.668 135.33C101.668 135.33 108.165 116.088 122.8 116.088C122.8 116.088 114.867 100.876 122.998 87.8656C122.998 87.8656 132.693 86.9527 134.183 78.4145C135.524 70.7255 132.152 59.8484 126.052 57.0035C126.052 57.0035 123.324 62.0953 124.155 62.9268C124.155 62.9268 117.237 63.769 111.717 65.7045C111.717 65.7045 107.486 62.4739 105.182 60.1704C102.939 57.927 101.431 67.8276 101.389 68.1177C101.223 69.2252 100.964 77.9899 103.827 80.8525C103.827 80.8525 63.1279 96.3154 68.7044 135.33H46.9077C46.9077 135.33 56.373 111.23 47.948 102.808C34.8877 89.7446 29.3147 65.3719 29.3147 65.3719Z" fill="#FFAA00"/>
<path d="M49.0731 65.0392C48.5353 54.3213 66.8537 52.7467 67.94 63.047C67.94 63.047 61.0896 69.4516 59.101 69.6604C57.1089 69.8691 49.1227 65.9946 49.0731 65.0392Z" fill="#FFAA00"/>
<path d="M120.549 80.8276C120.026 79.9501 123.844 79.2955 123.999 80.3075C124.155 81.3195 122.51 82.1121 122.51 82.1121C122.51 82.1121 121.282 82.0555 120.549 80.8276Z" fill="#FFAA00"/>
<path d="M115.376 80.955C116.76 80.955 117.882 79.8334 117.882 78.4498C117.882 77.0662 116.76 75.9446 115.376 75.9446C113.993 75.9446 112.871 77.0662 112.871 78.4498C112.871 79.8334 113.993 80.955 115.376 80.955Z" fill="#FFAA00"/>
<path d="M127.152 79.5751C128.536 79.5751 129.657 78.4535 129.657 77.0699C129.657 75.6863 128.536 74.5647 127.152 74.5647C125.768 74.5647 124.647 75.6863 124.647 77.0699C124.647 78.4535 125.768 79.5751 127.152 79.5751Z" fill="#FFAA00"/>
<path d="M236.031 86.5503C235.656 85.6284 235.398 83.3237 235.257 79.6362C235.132 75.9331 235.132 72.0503 235.257 67.9878C235.382 63.9253 235.64 60.894 236.031 58.894C236.593 56.394 237.617 54.3003 239.101 52.6128C240.585 50.9097 242.289 49.7769 244.21 49.2144C246.148 48.6362 248.07 48.7769 249.976 49.6362C251.773 50.5737 253.242 52.2769 254.382 54.7456C255.523 57.2144 256.046 59.8081 255.953 62.5269C255.89 63.9019 255.796 64.8862 255.671 65.48C255.546 66.0737 255.281 66.4331 254.875 66.5581C254.468 66.6675 253.781 66.7222 252.812 66.7222C251.875 66.7222 251.187 66.6597 250.75 66.5347C250.328 66.4097 250.015 66.0972 249.812 65.5972C249.625 65.0972 249.445 64.3003 249.273 63.2065C248.835 60.5347 248.289 58.7144 247.632 57.7456C246.992 56.7612 246.195 56.5347 245.242 57.0659C244.367 57.4409 243.734 58.1753 243.343 59.269C242.968 60.3628 242.617 62.4956 242.289 65.6675L241.75 70.4956H244.984C246.828 70.4956 248.164 70.8081 248.992 71.4331C249.835 72.0425 250.257 73.0112 250.257 74.3394C250.257 75.5894 249.835 76.5112 248.992 77.105C248.164 77.6987 246.765 78.0659 244.796 78.2065L241.445 78.4878V83.105C241.445 84.5581 241.406 85.6128 241.328 86.269C241.25 86.9253 241.046 87.3628 240.718 87.5815C240.406 87.7847 239.898 87.9175 239.195 87.98C237.664 88.1831 236.609 87.7065 236.031 86.5503ZM282.554 89.4565C282.148 89.1284 281.812 88.6597 281.546 88.0503C281.281 87.4409 281.148 86.8394 281.148 86.2456C281.148 85.3862 281.078 84.8081 280.937 84.5112C280.796 84.1987 280.484 84.1597 280 84.394C279.515 84.6284 278.757 85.1206 277.726 85.8706C275.898 87.105 273.789 87.8003 271.398 87.9565C269.023 88.0972 266.968 87.6519 265.234 86.6206C263.5 85.5581 262.195 84.2925 261.32 82.8237C260.445 81.3394 259.882 79.4487 259.632 77.1519C259.32 74.4175 259.523 71.855 260.242 69.4644C260.976 67.0581 262.156 65.0269 263.781 63.3706C264.875 62.1987 265.843 61.4644 266.687 61.1675C267.546 60.855 269.046 60.6987 271.187 60.6987C275.609 60.6987 279.101 62.2769 281.664 65.4331C284.226 68.5737 286.132 73.6362 287.382 80.6206C287.773 82.6987 288.031 84.2534 288.156 85.2847C288.281 86.3159 288.257 87.0737 288.085 87.5581C287.929 88.0425 287.625 88.519 287.171 88.9878C286.375 89.9097 285.64 90.4019 284.968 90.4644C284.296 90.5425 283.492 90.2065 282.554 89.4565ZM275.617 78.3706C277.257 76.4175 278.117 74.6909 278.195 73.1909C278.289 71.6753 277.609 70.2144 276.156 68.8081C274.796 67.48 273.398 66.7925 271.96 66.7456C270.523 66.6831 269.226 67.269 268.07 68.5034C267.351 69.3784 266.851 70.6987 266.57 72.4644C266.289 74.23 266.242 75.9331 266.429 77.5737C266.617 79.2144 267.046 80.2925 267.718 80.8081C270.296 82.48 272.929 81.6675 275.617 78.3706ZM313.468 89.7612C313.015 89.4956 312.632 89.0972 312.32 88.5659C312.023 88.0503 311.875 87.5425 311.875 87.0425C311.875 86.3394 311.781 85.8628 311.593 85.6128C311.406 85.3472 311.046 85.3081 310.515 85.4956C309.984 85.6675 309.21 86.0425 308.195 86.6206C306.257 87.6675 304.132 88.1206 301.82 87.98C299.507 87.8394 297.718 87.1519 296.453 85.9175C294.921 84.2769 293.742 82.2534 292.914 79.8472C292.101 77.4409 291.718 74.8862 291.765 72.1831C291.843 68.4175 292.125 65.73 292.609 64.1206C293.109 62.5112 293.929 61.6519 295.07 61.5425C295.757 61.3862 296.281 61.4878 296.64 61.8472C297.015 62.1909 297.32 63.0815 297.554 64.519C297.804 65.9409 298.093 68.1909 298.421 71.269C298.718 73.7378 299.359 75.8315 300.343 77.5503C301.343 79.269 302.46 80.1519 303.695 80.1987C305.617 80.1362 307.046 79.6362 307.984 78.6987C308.921 77.7456 309.625 76.4175 310.093 74.7144C310.578 72.9956 311.109 70.9644 311.687 68.6206C312.312 66.0425 312.82 64.0737 313.21 62.7144C313.617 61.355 314.101 60.6284 314.664 60.5347C315.242 60.4409 316.125 61.0034 317.312 62.2222C317.828 62.6909 318.21 63.3315 318.46 64.144C318.726 64.9565 318.898 66.2847 318.976 68.1284C319.07 69.9565 319.117 72.6362 319.117 76.1675C319.148 80.8394 319.023 84.3159 318.742 86.5972C318.46 88.8784 317.906 90.2144 317.078 90.605C316.25 91.0112 315.046 90.73 313.468 89.7612ZM340.914 87.1597C340.304 86.6284 339.82 85.6362 339.46 84.1831C339.101 82.7144 338.796 80.3784 338.546 77.1753C338.375 74.4409 338.25 72.4019 338.171 71.0581C338.093 69.6987 337.804 68.8394 337.304 68.48C336.273 67.7144 335.242 67.4253 334.21 67.6128C333.179 67.7847 332.312 68.6206 331.609 70.1206C330.921 71.605 330.562 73.9487 330.531 77.1519C330.593 80.23 330.375 82.4409 329.875 83.7847C329.375 85.1284 328.203 85.8159 326.359 85.8472C325.281 85.8628 324.515 85.4565 324.062 84.6284C323.625 83.8003 323.296 82.7144 323.078 81.3706C322.593 79.2925 322.515 75.5503 322.843 70.144C323.046 67.2378 323.328 65.0659 323.687 63.6284C324.062 62.1909 324.585 61.3628 325.257 61.144C325.929 60.9097 326.835 61.1675 327.976 61.9175C328.632 62.355 329.296 62.5425 329.968 62.48C330.64 62.4175 331.539 62.0894 332.664 61.4956C334.789 60.4644 336.976 60.2925 339.226 60.98C341.492 61.6519 343.289 63.0269 344.617 65.105C345.429 66.5737 345.976 68.8315 346.257 71.8784C346.539 74.9253 346.578 77.9019 346.375 80.8081C346.171 83.7144 345.742 85.6753 345.085 86.6909C344.476 87.4722 343.789 87.9019 343.023 87.98C342.273 88.0425 341.57 87.769 340.914 87.1597ZM373.07 89.4565C372.664 89.1284 372.328 88.6597 372.062 88.0503C371.796 87.4409 371.664 86.8394 371.664 86.2456C371.664 85.3862 371.593 84.8081 371.453 84.5112C371.312 84.1987 371 84.1597 370.515 84.394C370.031 84.6284 369.273 85.1206 368.242 85.8706C366.414 87.105 364.304 87.8003 361.914 87.9565C359.539 88.0972 357.484 87.6519 355.75 86.6206C354.015 85.5581 352.71 84.2925 351.835 82.8237C350.96 81.3394 350.398 79.4487 350.148 77.1519C349.835 74.4175 350.039 71.855 350.757 69.4644C351.492 67.0581 352.671 65.0269 354.296 63.3706C355.39 62.1987 356.359 61.4644 357.203 61.1675C358.062 60.855 359.562 60.6987 361.703 60.6987C366.125 60.6987 369.617 62.2769 372.179 65.4331C374.742 68.5737 376.648 73.6362 377.898 80.6206C378.289 82.6987 378.546 84.2534 378.671 85.2847C378.796 86.3159 378.773 87.0737 378.601 87.5581C378.445 88.0425 378.14 88.519 377.687 88.9878C376.89 89.9097 376.156 90.4019 375.484 90.4644C374.812 90.5425 374.007 90.2065 373.07 89.4565ZM366.132 78.3706C367.773 76.4175 368.632 74.6909 368.71 73.1909C368.804 71.6753 368.125 70.2144 366.671 68.8081C365.312 67.48 363.914 66.7925 362.476 66.7456C361.039 66.6831 359.742 67.269 358.585 68.5034C357.867 69.3784 357.367 70.6987 357.085 72.4644C356.804 74.23 356.757 75.9331 356.945 77.5737C357.132 79.2144 357.562 80.2925 358.234 80.8081C360.812 82.48 363.445 81.6675 366.132 78.3706ZM382.468 87.2065C381.906 86.5972 381.64 85.8315 381.671 84.9097C381.703 83.9878 382.007 83.23 382.585 82.6362C383.21 82.1362 384.015 81.8628 385 81.8159C385.984 81.769 386.734 81.9644 387.25 82.4019C387.421 82.5894 387.57 82.9253 387.695 83.4097C387.82 83.894 387.882 84.394 387.882 84.9097C387.882 85.4253 387.82 85.9253 387.695 86.4097C387.57 86.8784 387.421 87.2065 387.25 87.394C386.718 87.8315 385.929 88.0347 384.882 88.0034C383.835 87.9565 383.031 87.6909 382.468 87.2065ZM394.89 86.644C393.562 85.9722 392.687 85.23 392.265 84.4175C392.203 84.2612 392.109 83.8315 391.984 83.1284C391.859 82.4097 391.718 81.4644 391.562 80.2925C391.421 79.105 391.289 77.7456 391.164 76.2144C391.039 74.6675 390.945 72.9956 390.882 71.1987C390.82 69.3862 390.812 67.5034 390.859 65.5503C390.953 62.2534 391.07 59.9253 391.21 58.5659C391.351 57.2065 391.523 56.0894 391.726 55.2144C392.414 51.9956 393.218 50.019 394.14 49.2847C395.062 48.5347 395.882 48.8472 396.601 50.2222C396.804 50.5815 397.14 51.4331 397.609 52.7769C398.078 54.1206 398.531 55.9331 398.968 58.2144L399.437 60.9565L404.828 61.4722C408.562 61.8472 411.39 62.5503 413.312 63.5815C415.203 64.8315 416.656 66.5034 417.671 68.5972C418.687 70.6753 419.187 72.8315 419.171 75.0659C419.156 77.2847 418.546 79.23 417.343 80.9019C415.843 82.8081 413.734 84.3628 411.015 85.5659C408.312 86.769 405.492 87.4956 402.554 87.7456C399.632 87.98 397.078 87.6128 394.89 86.644ZM406.656 79.4253C407.828 78.9878 408.937 78.3784 409.984 77.5972C411.031 76.8159 411.773 76.0425 412.21 75.2769C412.867 73.9487 412.851 72.7144 412.164 71.5737C411.476 70.4175 410.32 69.5112 408.695 68.855C407.07 68.1831 405.179 67.9253 403.023 68.0815C400.992 68.1753 399.671 68.5112 399.062 69.0894C398.453 69.6675 398.093 70.9175 397.984 72.8394C397.515 76.8081 397.89 79.2534 399.109 80.1753C400.328 81.0972 402.843 80.8472 406.656 79.4253ZM426.812 98.48C426.515 98.2925 426.32 97.9565 426.226 97.4722C426.132 97.0034 426.085 96.48 426.085 95.9019C426.085 95.2144 426.289 94.394 426.695 93.4409C427.117 92.4878 427.593 91.5503 428.125 90.6284C428.671 89.7222 429.156 88.9565 429.578 88.3315C430 87.7222 430.21 87.4175 430.21 87.4175L426.156 76.9409C425.25 74.5034 424.468 72.2612 423.812 70.2144C423.156 68.1519 422.789 66.3628 422.71 64.8472C422.648 63.3159 423.039 62.1284 423.882 61.2847C424.945 60.2222 426.039 60.3237 427.164 61.5894C428.289 62.8394 429.625 65.48 431.171 69.5112C431.421 70.1362 431.664 70.7612 431.898 71.3862C432.148 72.0112 432.382 72.6128 432.601 73.1909C432.835 73.769 433.054 74.3081 433.257 74.8081C433.46 75.3081 433.64 75.7456 433.796 76.1206C433.953 76.48 434.085 76.769 434.195 76.9878C434.304 77.1909 434.382 77.3003 434.429 77.3159C434.492 77.3003 434.617 77.1284 434.804 76.8003C435.007 76.4722 435.25 76.0347 435.531 75.4878C435.812 74.9409 436.101 74.3472 436.398 73.7065C436.71 73.0659 437.007 72.4409 437.289 71.8315C439.023 68.0034 440.539 65.3003 441.835 63.7222C443.132 62.1284 444.351 61.4722 445.492 61.7534C446.507 62.0503 447.171 62.9878 447.484 64.5659C447.812 66.1284 447.625 67.8003 446.921 69.5815C446.281 71.144 445.296 73.1597 443.968 75.6284C442.656 78.0972 440.484 81.9019 437.453 87.0425C437.156 87.5894 436.484 88.7456 435.437 90.5112C434.406 92.2925 433.257 94.0581 431.992 95.8081C430.726 97.5737 429.585 98.7144 428.57 99.23C428.335 99.3237 428.062 99.2769 427.75 99.0894C427.437 98.9019 427.125 98.6987 426.812 98.48Z" fill="#FFAA00"/>
</svg>
