<svg width="308" height="260" viewBox="0 0 308 260" fill="none" xmlns="http://www.w3.org/2000/svg">
<path d="M27.1677 16.6082C14.8205 24.4403 -14.2908 73.3649 8.40457 89.2713C27.4431 102.613 38.1712 82.9803 38.1712 82.9803C38.1712 82.9803 43.8106 70.3763 37.4553 51.9215C31.0999 33.4668 46.9883 32.5971 46.9883 18.2098C46.9883 3.8225 27.1677 16.6082 27.1677 16.6082Z" fill="#3C3C3C"/>
<path d="M97.1039 59.4954C100.623 59.4954 103.476 56.4274 103.476 52.643C103.476 48.8585 100.623 45.7905 97.1039 45.7905C93.5848 45.7905 90.7321 48.8585 90.7321 52.643C90.7321 56.4274 93.5848 59.4954 97.1039 59.4954Z" fill="#3C3C3C"/>
<path d="M59.5171 66.3528C63.0362 66.3528 65.889 63.2849 65.889 59.5004C65.889 55.7159 63.0362 52.6479 59.5171 52.6479C55.9981 52.6479 53.1453 55.7159 53.1453 59.5004C53.1453 63.2849 55.9981 66.3528 59.5171 66.3528Z" fill="#3C3C3C"/>
<path d="M45.4794 100.516C53.4924 125.741 119.855 132.032 126.607 96.702C133.358 61.3722 84.6358 24.0609 87.3784 11.2037C89.8622 -0.437177 94.1303 0.24531 99.61 0.24531C105.09 0.24531 126.865 9.94327 136.652 7.41146C146.438 4.87964 167.635 9.20574 167.635 25.0131C167.635 31.5463 160.696 48.2232 136.652 40.215C112.607 32.2067 97.1097 14.1593 97.1097 14.1593C97.1097 14.1593 125.345 54.2115 170.059 64.3278C170.059 64.3278 255.514 97.1864 263.109 140.613C263.109 140.613 315.169 104.38 288.172 69.3914C288.172 69.3914 347.651 135.136 260.333 170.549C260.333 170.549 252.987 207.227 228.099 207.227C203.212 207.227 158.091 209.335 158.091 209.335C158.091 209.335 168.203 179.404 190.981 179.404C190.981 179.404 178.633 155.743 191.289 135.505C191.289 135.505 206.379 134.085 208.697 120.804C210.785 108.844 205.536 91.9246 196.042 87.4994C196.042 87.4994 191.796 95.4196 193.09 96.713C193.09 96.713 182.323 98.023 173.732 101.034C173.732 101.034 167.145 96.0085 163.56 92.4255C160.068 88.936 157.722 104.336 157.656 104.787C157.397 106.51 156.995 120.143 161.451 124.596C161.451 124.596 98.1066 148.648 106.786 209.335H72.8613C72.8613 209.335 87.5932 171.847 74.4805 158.748C54.1533 138.427 45.4794 100.516 45.4794 100.516Z" fill="#3C3C3C"/>
<path d="M76.2316 99.9984C75.3945 83.327 103.905 80.8777 105.596 96.8997C105.596 96.8997 94.9342 106.862 91.8391 107.187C88.7385 107.511 76.3087 101.484 76.2316 99.9984Z" fill="#3C3C3C"/>
<path d="M187.478 124.558C186.663 123.193 192.605 122.174 192.848 123.749C193.09 125.323 190.529 126.556 190.529 126.556C190.529 126.556 188.618 126.468 187.478 124.558Z" fill="#3C3C3C"/>
<path d="M179.426 124.756C181.58 124.756 183.325 123.011 183.325 120.859C183.325 118.707 181.58 116.962 179.426 116.962C177.273 116.962 175.527 118.707 175.527 120.859C175.527 123.011 177.273 124.756 179.426 124.756Z" fill="#3C3C3C"/>
<path d="M197.754 122.61C199.908 122.61 201.653 120.865 201.653 118.713C201.653 116.561 199.908 114.816 197.754 114.816C195.601 114.816 193.855 116.561 193.855 118.713C193.855 120.865 195.601 122.61 197.754 122.61Z" fill="#3C3C3C"/>
<path d="M68.0765 249.124C67.764 248.356 67.5492 246.435 67.432 243.362C67.3278 240.276 67.3278 237.041 67.432 233.655C67.5362 230.27 67.751 227.744 68.0765 226.077C68.5453 223.994 69.3982 222.249 70.6351 220.843C71.8721 219.424 73.2914 218.479 74.8929 218.011C76.5075 217.529 78.1091 217.646 79.6976 218.362C81.195 219.144 82.419 220.563 83.3695 222.62C84.32 224.677 84.7562 226.839 84.6781 229.104C84.626 230.25 84.5479 231.071 84.4437 231.565C84.3396 232.06 84.1182 232.36 83.7797 232.464C83.4411 232.555 82.8682 232.601 82.0609 232.601C81.2797 232.601 80.7067 232.549 80.3422 232.444C79.9906 232.34 79.7302 232.08 79.5609 231.663C79.4047 231.246 79.2549 230.582 79.1117 229.671C78.7471 227.444 78.2914 225.927 77.7445 225.12C77.2107 224.3 76.5466 224.111 75.7523 224.554C75.0232 224.866 74.4958 225.478 74.1703 226.39C73.8578 227.301 73.5648 229.078 73.2914 231.722L72.8422 235.745H75.5375C77.0739 235.745 78.1872 236.006 78.8773 236.526C79.5804 237.034 79.932 237.841 79.932 238.948C79.932 239.99 79.5804 240.758 78.8773 241.253C78.1872 241.748 77.0219 242.054 75.3812 242.171L72.5883 242.405V246.253C72.5883 247.464 72.5557 248.343 72.4906 248.89C72.4255 249.437 72.2562 249.801 71.9828 249.983C71.7224 250.153 71.2992 250.263 70.7133 250.315C69.4372 250.485 68.5583 250.088 68.0765 249.124ZM106.846 251.546C106.508 251.272 106.228 250.882 106.006 250.374C105.785 249.866 105.674 249.365 105.674 248.87C105.674 248.154 105.616 247.672 105.498 247.425C105.381 247.164 105.121 247.132 104.717 247.327C104.314 247.522 103.682 247.933 102.823 248.558C101.299 249.586 99.5414 250.166 97.5492 250.296C95.57 250.413 93.8578 250.042 92.4125 249.183C90.9672 248.297 89.8799 247.243 89.1508 246.019C88.4216 244.782 87.9528 243.206 87.7445 241.292C87.4841 239.013 87.6534 236.878 88.2523 234.886C88.8643 232.881 89.8474 231.188 91.2015 229.808C92.113 228.831 92.9203 228.219 93.6234 227.972C94.3396 227.711 95.5896 227.581 97.3734 227.581C101.058 227.581 103.968 228.896 106.104 231.526C108.239 234.144 109.828 238.362 110.87 244.183C111.195 245.914 111.41 247.21 111.514 248.069C111.618 248.929 111.599 249.56 111.455 249.964C111.325 250.368 111.071 250.765 110.694 251.155C110.03 251.924 109.418 252.334 108.858 252.386C108.298 252.451 107.627 252.171 106.846 251.546ZM101.065 242.308C102.432 240.68 103.148 239.241 103.213 237.991C103.291 236.728 102.725 235.511 101.514 234.339C100.381 233.232 99.2159 232.659 98.0179 232.62C96.82 232.568 95.7393 233.056 94.7758 234.085C94.1768 234.814 93.7601 235.914 93.5258 237.386C93.2914 238.857 93.2523 240.276 93.4086 241.644C93.5648 243.011 93.9229 243.909 94.4828 244.339C96.6312 245.732 98.8252 245.055 101.065 242.308ZM132.608 251.8C132.23 251.578 131.911 251.246 131.651 250.804C131.403 250.374 131.28 249.951 131.28 249.534C131.28 248.948 131.202 248.551 131.045 248.343C130.889 248.121 130.59 248.089 130.147 248.245C129.704 248.388 129.06 248.701 128.213 249.183C126.599 250.055 124.828 250.433 122.901 250.315C120.974 250.198 119.483 249.625 118.428 248.597C117.152 247.229 116.169 245.543 115.479 243.538C114.802 241.533 114.483 239.404 114.522 237.151C114.587 234.013 114.821 231.774 115.225 230.433C115.642 229.091 116.325 228.375 117.276 228.284C117.849 228.154 118.285 228.239 118.584 228.538C118.897 228.825 119.151 229.567 119.346 230.765C119.554 231.95 119.795 233.825 120.069 236.39C120.316 238.447 120.85 240.192 121.67 241.624C122.504 243.056 123.435 243.792 124.463 243.831C126.065 243.779 127.256 243.362 128.037 242.581C128.819 241.787 129.405 240.68 129.795 239.261C130.199 237.828 130.642 236.136 131.123 234.183C131.644 232.034 132.067 230.394 132.393 229.261C132.731 228.128 133.135 227.522 133.604 227.444C134.086 227.366 134.821 227.835 135.811 228.851C136.241 229.241 136.56 229.775 136.768 230.452C136.989 231.129 137.133 232.236 137.198 233.772C137.276 235.296 137.315 237.529 137.315 240.472C137.341 244.365 137.237 247.262 137.002 249.163C136.768 251.064 136.306 252.177 135.616 252.503C134.925 252.841 133.923 252.607 132.608 251.8ZM155.479 249.632C154.971 249.189 154.567 248.362 154.268 247.151C153.968 245.927 153.715 243.981 153.506 241.312C153.363 239.033 153.259 237.334 153.194 236.214C153.129 235.081 152.888 234.365 152.471 234.065C151.612 233.427 150.752 233.187 149.893 233.343C149.034 233.486 148.311 234.183 147.725 235.433C147.152 236.67 146.853 238.623 146.827 241.292C146.879 243.857 146.696 245.7 146.28 246.819C145.863 247.939 144.886 248.512 143.35 248.538C142.452 248.551 141.814 248.213 141.436 247.522C141.071 246.832 140.798 245.927 140.616 244.808C140.212 243.076 140.147 239.957 140.42 235.452C140.59 233.03 140.824 231.22 141.123 230.022C141.436 228.825 141.872 228.134 142.432 227.952C142.992 227.757 143.747 227.972 144.698 228.597C145.245 228.961 145.798 229.118 146.358 229.065C146.918 229.013 147.666 228.74 148.604 228.245C150.375 227.386 152.198 227.243 154.073 227.815C155.961 228.375 157.458 229.521 158.565 231.253C159.242 232.477 159.698 234.358 159.932 236.897C160.166 239.437 160.199 241.917 160.03 244.339C159.86 246.761 159.502 248.395 158.955 249.241C158.448 249.892 157.875 250.25 157.237 250.315C156.612 250.368 156.026 250.14 155.479 249.632ZM182.276 251.546C181.937 251.272 181.657 250.882 181.436 250.374C181.215 249.866 181.104 249.365 181.104 248.87C181.104 248.154 181.045 247.672 180.928 247.425C180.811 247.164 180.55 247.132 180.147 247.327C179.743 247.522 179.112 247.933 178.252 248.558C176.729 249.586 174.971 250.166 172.979 250.296C171 250.413 169.287 250.042 167.842 249.183C166.397 248.297 165.31 247.243 164.58 246.019C163.851 244.782 163.383 243.206 163.174 241.292C162.914 239.013 163.083 236.878 163.682 234.886C164.294 232.881 165.277 231.188 166.631 229.808C167.543 228.831 168.35 228.219 169.053 227.972C169.769 227.711 171.019 227.581 172.803 227.581C176.488 227.581 179.398 228.896 181.534 231.526C183.669 234.144 185.258 238.362 186.299 244.183C186.625 245.914 186.84 247.21 186.944 248.069C187.048 248.929 187.028 249.56 186.885 249.964C186.755 250.368 186.501 250.765 186.123 251.155C185.459 251.924 184.847 252.334 184.287 252.386C183.728 252.451 183.057 252.171 182.276 251.546ZM176.495 242.308C177.862 240.68 178.578 239.241 178.643 237.991C178.721 236.728 178.155 235.511 176.944 234.339C175.811 233.232 174.646 232.659 173.448 232.62C172.25 232.568 171.169 233.056 170.205 234.085C169.606 234.814 169.19 235.914 168.955 237.386C168.721 238.857 168.682 240.276 168.838 241.644C168.995 243.011 169.353 243.909 169.912 244.339C172.061 245.732 174.255 245.055 176.495 242.308ZM190.108 249.671C189.639 249.163 189.418 248.525 189.444 247.757C189.47 246.989 189.724 246.357 190.205 245.862C190.726 245.446 191.397 245.218 192.217 245.179C193.037 245.14 193.662 245.302 194.092 245.667C194.235 245.823 194.359 246.103 194.463 246.507C194.567 246.91 194.62 247.327 194.62 247.757C194.62 248.187 194.567 248.603 194.463 249.007C194.359 249.397 194.235 249.671 194.092 249.827C193.649 250.192 192.992 250.361 192.12 250.335C191.247 250.296 190.577 250.075 190.108 249.671ZM200.459 249.202C199.353 248.642 198.623 248.024 198.272 247.347C198.22 247.216 198.142 246.858 198.037 246.272C197.933 245.674 197.816 244.886 197.686 243.909C197.569 242.92 197.458 241.787 197.354 240.511C197.25 239.222 197.172 237.828 197.12 236.331C197.067 234.821 197.061 233.252 197.1 231.624C197.178 228.877 197.276 226.937 197.393 225.804C197.51 224.671 197.653 223.74 197.823 223.011C198.396 220.328 199.066 218.681 199.834 218.069C200.603 217.444 201.286 217.705 201.885 218.851C202.054 219.15 202.334 219.86 202.725 220.979C203.116 222.099 203.493 223.61 203.858 225.511L204.248 227.796L208.741 228.226C211.853 228.538 214.209 229.124 215.811 229.983C217.386 231.025 218.597 232.418 219.444 234.163C220.29 235.895 220.707 237.692 220.694 239.554C220.681 241.403 220.173 243.024 219.17 244.417C217.92 246.006 216.162 247.301 213.897 248.304C211.644 249.306 209.294 249.912 206.846 250.12C204.411 250.315 202.282 250.009 200.459 249.202ZM210.264 243.187C211.241 242.822 212.165 242.314 213.037 241.663C213.91 241.012 214.528 240.368 214.893 239.729C215.44 238.623 215.427 237.594 214.854 236.644C214.281 235.68 213.317 234.925 211.963 234.378C210.609 233.818 209.034 233.603 207.237 233.733C205.544 233.812 204.444 234.091 203.936 234.573C203.428 235.055 203.129 236.097 203.037 237.698C202.647 241.006 202.959 243.043 203.975 243.812C204.991 244.58 207.087 244.371 210.264 243.187ZM227.061 259.065C226.814 258.909 226.651 258.629 226.573 258.226C226.495 257.835 226.455 257.399 226.455 256.917C226.455 256.344 226.625 255.66 226.963 254.866C227.315 254.072 227.712 253.291 228.155 252.522C228.61 251.767 229.014 251.129 229.366 250.608C229.717 250.101 229.893 249.847 229.893 249.847L226.514 241.116C225.759 239.085 225.108 237.216 224.561 235.511C224.014 233.792 223.708 232.301 223.643 231.038C223.591 229.762 223.916 228.772 224.62 228.069C225.505 227.184 226.416 227.269 227.354 228.323C228.291 229.365 229.405 231.565 230.694 234.925C230.902 235.446 231.104 235.966 231.299 236.487C231.508 237.008 231.703 237.509 231.885 237.991C232.08 238.473 232.263 238.922 232.432 239.339C232.601 239.756 232.751 240.12 232.881 240.433C233.011 240.732 233.122 240.973 233.213 241.155C233.304 241.325 233.37 241.416 233.409 241.429C233.461 241.416 233.565 241.272 233.721 240.999C233.89 240.726 234.092 240.361 234.327 239.905C234.561 239.45 234.802 238.955 235.049 238.421C235.31 237.887 235.557 237.366 235.791 236.858C237.237 233.668 238.5 231.416 239.58 230.101C240.661 228.772 241.677 228.226 242.627 228.46C243.474 228.707 244.027 229.489 244.287 230.804C244.561 232.106 244.405 233.499 243.819 234.983C243.285 236.285 242.465 237.965 241.358 240.022C240.264 242.08 238.454 245.25 235.928 249.534C235.681 249.99 235.121 250.953 234.248 252.425C233.389 253.909 232.432 255.381 231.377 256.839C230.323 258.31 229.372 259.261 228.526 259.69C228.33 259.769 228.103 259.729 227.842 259.573C227.582 259.417 227.321 259.248 227.061 259.065Z" fill="#3C3C3C"/>
</svg>
