<svg width="309" height="261" viewBox="0 0 309 261" fill="none" xmlns="http://www.w3.org/2000/svg">
<path d="M27.4685 17.1927C15.1213 25.0248 -13.99 73.9494 8.70535 89.8558C27.7439 103.197 38.472 83.5648 38.472 83.5648C38.472 83.5648 44.1114 70.9607 37.756 52.506C31.4007 34.0512 47.2891 33.1816 47.2891 18.7943C47.2891 4.40697 27.4685 17.1927 27.4685 17.1927Z" fill="#FFAA00"/>
<path d="M97.4051 60.0798C100.924 60.0798 103.777 57.0119 103.777 53.2274C103.777 49.4429 100.924 46.375 97.4051 46.375C93.886 46.375 91.0332 49.4429 91.0332 53.2274C91.0332 57.0119 93.886 60.0798 97.4051 60.0798Z" fill="#FFAA00"/>
<path d="M59.8172 66.9373C63.3363 66.9373 66.1891 63.8693 66.1891 60.0848C66.1891 56.3004 63.3363 53.2324 59.8172 53.2324C56.2981 53.2324 53.4453 56.3004 53.4453 60.0848C53.4453 63.8693 56.2981 66.9373 59.8172 66.9373Z" fill="#FFAA00"/>
<path d="M45.7793 101.101C53.7923 126.325 120.155 132.616 126.906 97.2865C133.658 61.9566 84.9357 24.6454 87.6784 11.7881C90.1621 0.147296 94.4302 0.829783 99.9099 0.829783C105.39 0.829783 127.165 10.5277 136.952 7.99593C146.738 5.46411 167.935 9.79021 167.935 25.5976C167.935 32.1307 160.996 48.8077 136.952 40.7995C112.907 32.7912 97.4097 14.7438 97.4097 14.7438C97.4097 14.7438 125.645 54.796 170.359 64.9123C170.359 64.9123 255.814 97.7708 263.409 141.197C263.409 141.197 315.469 104.965 288.472 69.9759C288.472 69.9759 347.951 135.721 260.633 171.133C260.633 171.133 253.287 207.811 228.399 207.811C203.512 207.811 158.391 209.919 158.391 209.919C158.391 209.919 168.503 179.989 191.281 179.989C191.281 179.989 178.933 156.327 191.589 136.089C191.589 136.089 206.679 134.669 208.997 121.388C211.085 109.428 205.836 92.5091 196.342 88.0839C196.342 88.0839 192.096 96.0041 193.39 97.2975C193.39 97.2975 182.623 98.6074 174.032 101.618C174.032 101.618 167.445 96.593 163.86 93.0099C160.368 89.5204 158.022 104.92 157.956 105.372C157.697 107.095 157.295 120.728 161.751 125.181C161.751 125.181 98.4065 149.233 107.086 209.919H73.1613C73.1613 209.919 87.8931 172.432 74.7804 159.333C54.4532 139.012 45.7793 101.101 45.7793 101.101Z" fill="#FFAA00"/>
<path d="M76.5317 100.583C75.6946 83.9114 104.206 81.4622 105.896 97.4842C105.896 97.4842 95.2343 107.446 92.1393 107.771C89.0387 108.096 76.6088 102.069 76.5317 100.583Z" fill="#FFAA00"/>
<path d="M187.778 125.142C186.963 123.777 192.905 122.759 193.147 124.333C193.39 125.907 190.829 127.14 190.829 127.14C190.829 127.14 188.918 127.052 187.778 125.142Z" fill="#FFAA00"/>
<path d="M179.727 125.34C181.881 125.34 183.626 123.595 183.626 121.443C183.626 119.291 181.881 117.546 179.727 117.546C177.574 117.546 175.828 119.291 175.828 121.443C175.828 123.595 177.574 125.34 179.727 125.34Z" fill="#FFAA00"/>
<path d="M198.055 123.194C200.209 123.194 201.955 121.449 201.955 119.297C201.955 117.145 200.209 115.4 198.055 115.4C195.902 115.4 194.156 117.145 194.156 119.297C194.156 121.449 195.902 123.194 198.055 123.194Z" fill="#FFAA00"/>
<path d="M68.377 249.708C68.0645 248.94 67.8496 247.02 67.7324 243.947C67.6283 240.861 67.6283 237.625 67.7324 234.24C67.8366 230.854 68.0514 228.328 68.377 226.662C68.8457 224.578 69.6986 222.833 70.9355 221.427C72.1725 220.008 73.5918 219.064 75.1934 218.595C76.8079 218.113 78.4095 218.231 79.998 218.947C81.4954 219.728 82.7194 221.147 83.6699 223.205C84.6204 225.262 85.0566 227.423 84.9785 229.689C84.9264 230.835 84.8483 231.655 84.7441 232.15C84.64 232.645 84.4186 232.944 84.0801 233.048C83.7415 233.139 83.1686 233.185 82.3613 233.185C81.5801 233.185 81.0072 233.133 80.6426 233.029C80.291 232.925 80.0306 232.664 79.8613 232.248C79.7051 231.831 79.5553 231.167 79.4121 230.255C79.0475 228.029 78.5918 226.512 78.0449 225.705C77.5111 224.884 76.847 224.695 76.0527 225.138C75.3236 225.451 74.7962 226.063 74.4707 226.974C74.1582 227.886 73.8652 229.663 73.5918 232.306L73.1426 236.33H75.8379C77.3743 236.33 78.4876 236.59 79.1777 237.111C79.8809 237.619 80.2324 238.426 80.2324 239.533C80.2324 240.574 79.8809 241.343 79.1777 241.837C78.4876 242.332 77.3223 242.638 75.6816 242.755L72.8887 242.99V246.837C72.8887 248.048 72.8561 248.927 72.791 249.474C72.7259 250.021 72.5566 250.386 72.2832 250.568C72.0228 250.737 71.5996 250.848 71.0137 250.9C69.7376 251.069 68.8587 250.672 68.377 249.708ZM107.146 252.13C106.808 251.857 106.528 251.466 106.307 250.958C106.085 250.451 105.975 249.949 105.975 249.455C105.975 248.738 105.916 248.257 105.799 248.009C105.682 247.749 105.421 247.716 105.018 247.912C104.614 248.107 103.982 248.517 103.123 249.142C101.6 250.171 99.8418 250.75 97.8496 250.88C95.8704 250.998 94.1582 250.626 92.7129 249.767C91.2676 248.882 90.1803 247.827 89.4512 246.603C88.722 245.366 88.2533 243.791 88.0449 241.876C87.7845 239.598 87.9538 237.462 88.5527 235.47C89.1647 233.465 90.1478 231.772 91.502 230.392C92.4134 229.416 93.2207 228.804 93.9238 228.556C94.64 228.296 95.89 228.166 97.6738 228.166C101.359 228.166 104.269 229.481 106.404 232.111C108.54 234.728 110.128 238.947 111.17 244.767C111.495 246.499 111.71 247.794 111.814 248.654C111.919 249.513 111.899 250.145 111.756 250.548C111.626 250.952 111.372 251.349 110.994 251.74C110.33 252.508 109.718 252.918 109.158 252.97C108.598 253.035 107.928 252.755 107.146 252.13ZM101.365 242.892C102.732 241.264 103.449 239.826 103.514 238.576C103.592 237.313 103.025 236.095 101.814 234.923C100.682 233.817 99.5163 233.244 98.3184 233.205C97.1204 233.153 96.0397 233.641 95.0762 234.669C94.4772 235.399 94.0605 236.499 93.8262 237.97C93.5918 239.442 93.5527 240.861 93.709 242.228C93.8652 243.595 94.2233 244.494 94.7832 244.923C96.9316 246.317 99.1257 245.639 101.365 242.892ZM132.908 252.384C132.531 252.163 132.212 251.831 131.951 251.388C131.704 250.958 131.58 250.535 131.58 250.119C131.58 249.533 131.502 249.136 131.346 248.927C131.189 248.706 130.89 248.673 130.447 248.83C130.005 248.973 129.36 249.285 128.514 249.767C126.899 250.639 125.128 251.017 123.201 250.9C121.274 250.783 119.783 250.21 118.729 249.181C117.452 247.814 116.469 246.128 115.779 244.123C115.102 242.117 114.783 239.988 114.822 237.736C114.887 234.598 115.122 232.358 115.525 231.017C115.942 229.676 116.626 228.96 117.576 228.869C118.149 228.738 118.585 228.823 118.885 229.123C119.197 229.409 119.451 230.151 119.646 231.349C119.855 232.534 120.096 234.409 120.369 236.974C120.617 239.031 121.15 240.776 121.971 242.208C122.804 243.641 123.735 244.376 124.764 244.416C126.365 244.363 127.557 243.947 128.338 243.166C129.119 242.371 129.705 241.264 130.096 239.845C130.499 238.413 130.942 236.72 131.424 234.767C131.945 232.619 132.368 230.978 132.693 229.845C133.032 228.712 133.436 228.107 133.904 228.029C134.386 227.951 135.122 228.419 136.111 229.435C136.541 229.826 136.86 230.36 137.068 231.037C137.29 231.714 137.433 232.82 137.498 234.357C137.576 235.88 137.615 238.113 137.615 241.056C137.641 244.949 137.537 247.847 137.303 249.748C137.068 251.649 136.606 252.762 135.916 253.087C135.226 253.426 134.223 253.192 132.908 252.384ZM155.779 250.216C155.271 249.774 154.868 248.947 154.568 247.736C154.269 246.512 154.015 244.565 153.807 241.896C153.663 239.617 153.559 237.918 153.494 236.798C153.429 235.666 153.188 234.949 152.771 234.65C151.912 234.012 151.053 233.771 150.193 233.927C149.334 234.07 148.611 234.767 148.025 236.017C147.452 237.254 147.153 239.207 147.127 241.876C147.179 244.442 146.997 246.284 146.58 247.404C146.163 248.524 145.187 249.097 143.65 249.123C142.752 249.136 142.114 248.797 141.736 248.107C141.372 247.417 141.098 246.512 140.916 245.392C140.512 243.66 140.447 240.542 140.721 236.037C140.89 233.615 141.124 231.805 141.424 230.607C141.736 229.409 142.173 228.719 142.732 228.537C143.292 228.341 144.048 228.556 144.998 229.181C145.545 229.546 146.098 229.702 146.658 229.65C147.218 229.598 147.967 229.324 148.904 228.83C150.675 227.97 152.498 227.827 154.373 228.4C156.261 228.96 157.758 230.106 158.865 231.837C159.542 233.061 159.998 234.943 160.232 237.482C160.467 240.021 160.499 242.501 160.33 244.923C160.161 247.345 159.803 248.979 159.256 249.826C158.748 250.477 158.175 250.835 157.537 250.9C156.912 250.952 156.326 250.724 155.779 250.216ZM182.576 252.13C182.238 251.857 181.958 251.466 181.736 250.958C181.515 250.451 181.404 249.949 181.404 249.455C181.404 248.738 181.346 248.257 181.229 248.009C181.111 247.749 180.851 247.716 180.447 247.912C180.044 248.107 179.412 248.517 178.553 249.142C177.029 250.171 175.271 250.75 173.279 250.88C171.3 250.998 169.588 250.626 168.143 249.767C166.697 248.882 165.61 247.827 164.881 246.603C164.152 245.366 163.683 243.791 163.475 241.876C163.214 239.598 163.383 237.462 163.982 235.47C164.594 233.465 165.577 231.772 166.932 230.392C167.843 229.416 168.65 228.804 169.354 228.556C170.07 228.296 171.32 228.166 173.104 228.166C176.788 228.166 179.699 229.481 181.834 232.111C183.969 234.728 185.558 238.947 186.6 244.767C186.925 246.499 187.14 247.794 187.244 248.654C187.348 249.513 187.329 250.145 187.186 250.548C187.055 250.952 186.801 251.349 186.424 251.74C185.76 252.508 185.148 252.918 184.588 252.97C184.028 253.035 183.357 252.755 182.576 252.13ZM176.795 242.892C178.162 241.264 178.878 239.826 178.943 238.576C179.021 237.313 178.455 236.095 177.244 234.923C176.111 233.817 174.946 233.244 173.748 233.205C172.55 233.153 171.469 233.641 170.506 234.669C169.907 235.399 169.49 236.499 169.256 237.97C169.021 239.442 168.982 240.861 169.139 242.228C169.295 243.595 169.653 244.494 170.213 244.923C172.361 246.317 174.555 245.639 176.795 242.892ZM190.408 250.255C189.939 249.748 189.718 249.11 189.744 248.341C189.77 247.573 190.024 246.942 190.506 246.447C191.027 246.03 191.697 245.802 192.518 245.763C193.338 245.724 193.963 245.887 194.393 246.251C194.536 246.408 194.66 246.688 194.764 247.091C194.868 247.495 194.92 247.912 194.92 248.341C194.92 248.771 194.868 249.188 194.764 249.591C194.66 249.982 194.536 250.255 194.393 250.412C193.95 250.776 193.292 250.945 192.42 250.919C191.548 250.88 190.877 250.659 190.408 250.255ZM200.76 249.787C199.653 249.227 198.924 248.608 198.572 247.931C198.52 247.801 198.442 247.443 198.338 246.857C198.234 246.258 198.117 245.47 197.986 244.494C197.869 243.504 197.758 242.371 197.654 241.095C197.55 239.806 197.472 238.413 197.42 236.916C197.368 235.405 197.361 233.836 197.4 232.208C197.479 229.461 197.576 227.521 197.693 226.388C197.811 225.255 197.954 224.324 198.123 223.595C198.696 220.913 199.367 219.266 200.135 218.654C200.903 218.029 201.587 218.289 202.186 219.435C202.355 219.735 202.635 220.444 203.025 221.564C203.416 222.684 203.794 224.194 204.158 226.095L204.549 228.38L209.041 228.81C212.153 229.123 214.51 229.708 216.111 230.568C217.687 231.61 218.898 233.003 219.744 234.748C220.59 236.479 221.007 238.276 220.994 240.138C220.981 241.987 220.473 243.608 219.471 245.001C218.221 246.59 216.463 247.886 214.197 248.888C211.945 249.891 209.594 250.496 207.146 250.705C204.712 250.9 202.583 250.594 200.76 249.787ZM210.564 243.771C211.541 243.406 212.465 242.899 213.338 242.248C214.21 241.597 214.829 240.952 215.193 240.314C215.74 239.207 215.727 238.179 215.154 237.228C214.581 236.264 213.618 235.509 212.264 234.962C210.91 234.403 209.334 234.188 207.537 234.318C205.844 234.396 204.744 234.676 204.236 235.158C203.729 235.639 203.429 236.681 203.338 238.283C202.947 241.59 203.26 243.628 204.275 244.396C205.291 245.164 207.387 244.956 210.564 243.771ZM227.361 259.65C227.114 259.494 226.951 259.214 226.873 258.81C226.795 258.419 226.756 257.983 226.756 257.501C226.756 256.929 226.925 256.245 227.264 255.451C227.615 254.656 228.012 253.875 228.455 253.107C228.911 252.352 229.314 251.714 229.666 251.193C230.018 250.685 230.193 250.431 230.193 250.431L226.814 241.701C226.059 239.669 225.408 237.801 224.861 236.095C224.314 234.376 224.008 232.886 223.943 231.623C223.891 230.347 224.217 229.357 224.92 228.654C225.805 227.768 226.717 227.853 227.654 228.908C228.592 229.949 229.705 232.15 230.994 235.509C231.202 236.03 231.404 236.551 231.6 237.072C231.808 237.593 232.003 238.094 232.186 238.576C232.381 239.057 232.563 239.507 232.732 239.923C232.902 240.34 233.051 240.705 233.182 241.017C233.312 241.317 233.423 241.557 233.514 241.74C233.605 241.909 233.67 242 233.709 242.013C233.761 242 233.865 241.857 234.021 241.583C234.191 241.31 234.393 240.945 234.627 240.49C234.861 240.034 235.102 239.539 235.35 239.005C235.61 238.472 235.857 237.951 236.092 237.443C237.537 234.253 238.8 232 239.881 230.685C240.962 229.357 241.977 228.81 242.928 229.044C243.774 229.292 244.327 230.073 244.588 231.388C244.861 232.69 244.705 234.083 244.119 235.568C243.585 236.87 242.765 238.55 241.658 240.607C240.564 242.664 238.755 245.835 236.229 250.119C235.981 250.574 235.421 251.538 234.549 253.009C233.689 254.494 232.732 255.965 231.678 257.423C230.623 258.895 229.673 259.845 228.826 260.275C228.631 260.353 228.403 260.314 228.143 260.158C227.882 260.001 227.622 259.832 227.361 259.65Z" fill="#FFAA00"/>
</svg>
