<svg width="31" height="31" viewBox="0 0 31 31" fill="none" xmlns="http://www.w3.org/2000/svg">
<path d="M4.90192 0.587919C4.37078 0.603474 3.90417 0.874929 3.51362 1.25313L2.86201 1.88315L9.9239 8.8467L10.949 7.85392C11.5669 7.25563 11.5669 6.26772 10.949 5.66941L6.38777 1.25313C5.94597 0.825266 5.43305 0.57211 4.90192 0.587919ZM2.10871 2.61067L1.3606 3.33416C0.136458 4.51963 0.144533 6.0708 0.144533 6.7868C0.144533 9.74945 1.36757 14.8715 8.79914 22.0684C16.2307 29.2654 21.5207 30.4508 24.58 30.4508C25.3194 30.4508 26.9211 30.4586 28.1452 29.2731L28.8217 28.6179L21.7598 21.6544L21.0189 22.3729C20.5799 22.798 20.2559 22.8488 19.9409 22.813C19.6259 22.7772 19.3002 22.6006 19.062 22.4221C17.7634 21.4484 15.6608 20.0547 13.2702 17.7395C10.8795 15.4244 9.44037 13.3872 8.43495 12.1295C8.25062 11.8989 8.06837 11.5875 8.03132 11.2824C7.99419 10.9773 8.0512 10.6596 8.48994 10.2344L9.17164 9.57422L2.10871 2.61067ZM24.6049 19.5382C24.1957 19.5382 23.787 19.6881 23.4781 19.9874L22.511 20.9249L29.5739 27.8894L30.294 27.1921C30.6846 26.8139 30.9636 26.3579 30.9799 25.8436C30.9959 25.3292 30.7358 24.8325 30.294 24.4047L25.7328 19.9874C25.4238 19.6882 25.0141 19.5382 24.6049 19.5382Z" fill="white"/>
</svg>
