<svg width="32" height="31" viewBox="0 0 32 31" fill="none" xmlns="http://www.w3.org/2000/svg">
<path d="M5.60212 0.452117C5.07097 0.467707 4.60436 0.739767 4.21381 1.11881L3.5622 1.75024L10.6241 8.7293L11.6492 7.73432C12.2671 7.13468 12.267 6.14458 11.6492 5.54493L7.08796 1.11881C6.64616 0.689994 6.13324 0.436273 5.60212 0.452117ZM2.8089 2.47938L2.0608 3.20448C0.836653 4.3926 0.844728 5.94722 0.844728 6.66481C0.844728 9.63407 2.06777 14.7675 9.49933 21.9805C16.9309 29.1935 22.2209 30.3815 25.2802 30.3815C26.0196 30.3815 27.6212 30.3893 28.8453 29.2012L29.5219 28.5446L22.46 21.5655L21.7191 22.2856C21.2801 22.7117 20.9561 22.7626 20.6411 22.7267C20.326 22.6908 20.0004 22.5139 19.7622 22.3349C18.4636 21.3591 16.361 19.9623 13.9703 17.642C11.5797 15.3216 10.1406 13.2799 9.13514 12.0194C8.95081 11.7883 8.76856 11.4762 8.73151 11.1704C8.69438 10.8647 8.75139 10.5462 9.19013 10.1201L9.87183 9.45845L2.8089 2.47938ZM25.3051 19.4447C24.8958 19.4447 24.4871 19.5949 24.1782 19.8948L23.2112 20.8344L30.2741 27.8144L30.9942 27.1156C31.3847 26.7365 31.6637 26.2796 31.6801 25.764C31.6961 25.2485 31.436 24.7508 30.9942 24.3219L26.4329 19.8948C26.124 19.595 25.7143 19.4447 25.3051 19.4447Z" fill="#3C3C3C"/>
</svg>
