<svg width="47" height="47" viewBox="0 0 47 47" fill="none" xmlns="http://www.w3.org/2000/svg">
<path d="M28.452 0.556824C18.255 0.556824 9.9941 8.81777 9.9941 19.0147C9.9941 23.4224 11.5354 27.4636 14.1105 30.6402L1.42302 43.3277C0.671168 44.0795 0.671168 45.2919 1.42302 46.0437C2.17487 46.7956 3.38722 46.7956 4.13907 46.0437L16.8265 33.3563C20.0031 35.9313 24.0443 37.4726 28.452 37.4726C38.649 37.4726 46.9099 29.2117 46.9099 19.0147C46.9099 8.81777 38.6396 0.556824 28.452 0.556824ZM28.452 33.6382C20.379 33.6382 13.8285 27.0877 13.8285 19.0147C13.8285 10.9417 20.379 4.39126 28.452 4.39126C36.525 4.39126 43.0755 10.9417 43.0755 19.0147C43.0755 27.0877 36.525 33.6382 28.452 33.6382Z" fill="white"/>
</svg>
