<svg width="34" height="34" viewBox="0 0 34 34" fill="none" xmlns="http://www.w3.org/2000/svg">
<rect x="0.175049" y="0.859863" width="33.475" height="32.6072" fill="white"/>
<path d="M8.6018 11.6158C8.85958 11.3687 9.62345 10.6382 16.6733 10.6382C23.7231 10.6382 24.5037 11.3079 24.7489 11.6158C24.9941 11.9237 25.2752 12.2351 25.2752 16.6561C25.2752 21.077 25.1556 21.4344 24.7489 21.7942C24.3422 22.1541 23.6643 22.674 16.6733 22.674C9.68224 22.674 8.86591 22.107 8.6018 21.7942C8.3377 21.4814 8.07129 21.0614 8.07129 16.6561C8.07129 12.2507 8.34403 11.8629 8.6018 11.6158Z" fill="#FF4D00"/>
<path d="M19.0483 16.2203C19.3882 16.4115 19.3882 16.9008 19.0483 17.092L15.8435 18.8943C15.5102 19.0818 15.0984 18.8409 15.0984 18.4585V14.8538C15.0984 14.4714 15.5102 14.2305 15.8435 14.418L19.0483 16.2203Z" fill="white"/>
</svg>
